<svg width="873" height="945" viewBox="0 0 873 945" fill="none" xmlns="http://www.w3.org/2000/svg">
<path d="M867.631 346.943C857.932 227.397 853.082 167.625 830.508 128.953C765.875 18.2234 577.96 -8.11252 459.276 1.98665C300.388 15.5034 118.621 106.812 38.6105 283.106C-34.0603 443.23 -0.551474 624.481 108.948 743.047C309.677 960.397 723.736 921.591 824.884 778.971C865.25 722.052 868.159 631.14 872.436 497.595C874.491 433.31 870.48 382.082 867.631 346.943Z" fill="#F4F7FA"/>
<path d="M369.672 122.882L368.879 128.559C366.247 128.68 363.658 129.019 361.139 129.585L358.993 124.29C358.409 122.846 356.755 122.159 355.301 122.759L346.2 126.508C344.744 127.107 344.034 128.77 344.615 130.216L346.771 135.578C344.566 136.983 342.482 138.573 340.542 140.333L335.972 136.787C334.737 135.83 332.946 136.067 331.971 137.317L325.857 145.14C324.877 146.393 325.085 148.189 326.32 149.148L330.908 152.715C329.686 155.01 328.659 157.434 327.831 159.963L322.008 159.199C320.443 158.993 318.987 160.102 318.756 161.677L317.291 171.542C317.057 173.122 318.138 174.573 319.705 174.779L325.546 175.546C325.615 178.209 325.906 180.828 326.423 183.378L320.943 185.663C319.466 186.278 318.74 187.979 319.322 189.458L322.973 198.737C323.557 200.224 325.232 200.927 326.714 200.307L332.197 198.011C333.576 200.255 335.149 202.37 336.893 204.336L333.239 209.081C332.251 210.365 332.462 212.202 333.713 213.185L341.545 219.329C342.798 220.312 344.618 220.065 345.603 218.776L349.213 214.062C351.519 215.29 353.958 216.311 356.503 217.127L355.682 223.009C355.458 224.62 356.557 226.094 358.137 226.3L368.025 227.597C369.607 227.805 371.066 226.665 371.288 225.055L372.085 219.216C374.774 219.1 377.417 218.753 379.987 218.174L382.156 223.567C382.758 225.065 384.444 225.772 385.921 225.147L395.143 221.239C396.617 220.613 397.32 218.897 396.715 217.405L394.546 212.05C396.797 210.596 398.917 208.947 400.883 207.123L405.391 210.627C406.652 211.608 408.458 211.361 409.426 210.077L415.465 202.069C416.43 200.79 416.191 198.966 414.932 197.991L410.465 194.527C411.683 192.168 412.694 189.675 413.497 187.078L419.08 187.812C420.647 188.018 422.083 186.898 422.286 185.313L423.555 175.422C423.758 173.845 422.654 172.399 421.09 172.193L415.522 171.462C415.406 168.766 415.066 166.121 414.495 163.55L419.659 161.389C421.11 160.781 421.797 159.104 421.195 157.642L417.423 148.523C416.821 147.067 415.159 146.377 413.708 146.982L408.513 149.148C407.097 146.928 405.497 144.833 403.719 142.896L407.151 138.416C408.106 137.168 407.872 135.385 406.632 134.43L398.874 128.469C397.633 127.517 395.855 127.751 394.898 128.994L391.445 133.478C389.155 132.29 386.736 131.302 384.212 130.519L384.982 124.887C385.193 123.338 384.109 121.915 382.558 121.712L372.865 120.441C371.321 120.242 369.888 121.331 369.672 122.882ZM335.499 168.861C338.301 149.367 356.191 135.702 375.477 138.231C394.762 140.76 408.307 158.551 405.716 178.07C403.109 197.71 385.18 211.644 365.683 209.089C346.187 206.531 332.681 188.473 335.499 168.861Z" fill="#D8DEE8"/>
<path d="M221.045 119.805L219.82 128.581C215.752 128.767 211.748 129.292 207.853 130.166L204.536 121.979C203.63 119.745 201.075 118.685 198.829 119.612L184.757 125.409C182.505 126.338 181.407 128.903 182.307 131.144L185.642 139.435C182.233 141.606 179.009 144.064 176.011 146.789L168.935 141.305C167.028 139.826 164.257 140.194 162.749 142.124L153.296 154.217C151.78 156.155 152.102 158.931 154.011 160.416L161.105 165.932C159.216 169.481 157.626 173.23 156.345 177.138L147.342 175.957C144.925 175.641 142.674 177.354 142.311 179.788L140.049 195.044C139.687 197.489 141.359 199.73 143.783 200.046L152.812 201.23C152.92 205.347 153.368 209.4 154.171 213.341L145.697 216.874C143.412 217.826 142.291 220.453 143.191 222.744L148.837 237.088C149.74 239.386 152.331 240.475 154.621 239.515L163.099 235.967C165.23 239.435 167.661 242.706 170.36 245.744L164.712 253.08C163.184 255.067 163.511 257.907 165.446 259.425L177.557 268.925C179.495 270.446 182.307 270.063 183.833 268.071L189.414 260.784C192.978 262.683 196.753 264.263 200.687 265.524L199.416 274.62C199.068 277.11 200.767 279.39 203.214 279.709L218.503 281.714C220.947 282.035 223.206 280.273 223.546 277.782L224.781 268.755C228.939 268.578 233.025 268.04 236.998 267.145L240.351 275.484C241.282 277.8 243.889 278.893 246.171 277.926L260.431 271.884C262.708 270.919 263.797 268.264 262.86 265.953L259.505 257.673C262.986 255.427 266.264 252.874 269.306 250.054L276.274 255.473C278.222 256.989 281.013 256.605 282.511 254.624L291.849 242.245C293.338 240.269 292.971 237.446 291.025 235.938L284.119 230.586C286.003 226.935 287.564 223.081 288.805 219.069L297.44 220.201C299.864 220.52 302.084 218.789 302.398 216.339L304.359 201.045C304.673 198.603 302.964 196.369 300.548 196.053L291.939 194.923C291.761 190.755 291.236 186.664 290.351 182.691L298.338 179.348C300.584 178.409 301.647 175.816 300.71 173.556L294.877 159.456C293.946 157.204 291.375 156.139 289.134 157.073L281.103 160.421C278.916 156.986 276.438 153.749 273.693 150.756L278.999 143.83C280.476 141.902 280.115 139.144 278.193 137.667L266.198 128.45C264.281 126.978 261.53 127.341 260.05 129.263L254.709 136.198C251.166 134.361 247.427 132.832 243.526 131.62L244.717 122.91C245.044 120.515 243.367 118.317 240.971 118.003L225.983 116.038C223.592 115.724 221.38 117.409 221.045 119.805ZM168.207 190.896C172.537 160.755 200.2 139.625 230.017 143.536C259.834 147.447 280.777 174.954 276.773 205.136C272.744 235.501 245.024 257.048 214.88 253.093C184.734 249.141 163.848 221.218 168.207 190.896Z" fill="#D8DEE8"/>
<path d="M675.995 186.901L677.72 196.457L642.216 196.543L334.115 197.293C326.189 197.313 318.9 204.038 317.812 212.314L244.263 716.838C243.169 725.189 255.832 737.936 263.711 738.559L400.399 749.341V749.17L604.861 765.269C604.864 765.269 604.868 765.269 604.871 765.269L605.365 765.482C614.095 766.173 622.104 759.671 623.238 750.851C623.238 750.848 623.238 750.889 623.242 750.885L692.121 212.218C693.242 203.48 684.775 186.877 675.995 186.901Z" fill="url(#paint0_linear_50_203)"/>
<path d="M616.273 740.355C615.145 749.178 607.139 755.772 598.409 755.084L256.402 728.131C248.526 727.511 243.045 720.239 244.139 711.888L311 201.998C312.084 193.723 319.373 186.998 327.292 186.974L671.231 186.002C680.008 185.978 686.233 193.041 685.118 201.779L616.273 740.355Z" fill="url(#paint1_linear_50_203)"/>
<path d="M620.816 459.944C620.256 464.313 616.28 467.572 611.936 467.408L310.93 456.133C306.957 455.986 304.162 452.627 304.709 448.453L310.627 403.432C311.174 399.262 314.8 396.44 318.776 396.553L620.046 405.141C624.396 405.264 627.475 408.417 626.918 412.783L620.816 459.944Z" fill="white"/>
<path d="M609.161 551.421C608.6 555.8 604.621 559.536 600.277 559.313L299.498 544.063C295.528 543.861 292.766 539.961 293.313 535.784L299.278 489.893C299.825 485.72 303.485 482.142 307.458 482.306L608.42 494.766C612.763 494.947 615.836 498.98 615.275 503.353L609.161 551.421Z" fill="white"/>
<path opacity="0.1" d="M626.942 412.602C626.228 412.365 625.461 412.235 624.644 412.211L323.368 403.628C319.394 403.511 315.765 406.339 315.225 410.499L309.297 455.52C309.283 455.637 309.273 455.746 309.263 455.863C306.208 454.98 304.243 452.008 304.703 448.447L310.631 403.426C311.172 399.266 314.801 396.434 318.774 396.554L620.05 405.138C624.323 405.268 627.389 408.322 626.942 412.602Z" fill="url(#paint2_linear_50_203)"/>
<path opacity="0.1" d="M615.34 502.339C614.616 502.044 613.836 501.866 613.008 501.832L312.053 489.369C308.079 489.205 304.413 492.79 303.873 496.963L297.898 542.857C297.865 543.152 297.842 543.436 297.842 543.731C294.786 542.717 292.845 539.345 293.305 535.784L299.279 489.889C299.82 485.716 303.483 482.131 307.459 482.295L608.415 494.758C612.435 494.936 615.35 498.377 615.34 502.339Z" fill="url(#paint3_linear_50_203)"/>
<path d="M529.167 625.567C530.055 618.661 525.298 612.299 518.536 611.898L362.834 602.722C356.386 602.342 350.431 607.916 349.554 614.641L343.129 664.349C342.251 671.084 346.725 677.528 353.17 677.98L508.792 688.909C515.55 689.385 521.775 683.527 522.666 676.61L529.167 625.567Z" fill="url(#paint4_linear_50_203)"/>
<path d="M540.927 290.662C538.875 306.553 530.922 320.896 519.614 331.445C507.428 342.822 491.375 349.746 474.683 349.413C458.073 349.085 444.093 341.638 435.116 330.007C426.836 319.286 422.78 305.002 424.811 289.378C429.038 256.875 458.133 230.6 490.061 230.679C522.292 230.751 545.19 257.604 540.927 290.662Z" fill="url(#paint5_linear_50_203)"/>
<path d="M509.879 272.601C508.038 286.838 495.234 298.247 481.334 298.075C467.49 297.904 457.796 286.307 459.627 272.173C461.462 258.043 474.135 246.645 487.986 246.71C501.896 246.775 511.72 258.365 509.879 272.601Z" fill="white"/>
<path d="M519.616 331.445C507.43 342.823 491.378 349.746 474.685 349.414C458.076 349.085 444.095 341.638 435.118 330.007C445.393 315.315 462.339 305.543 480.336 305.783C498.43 306.023 513.014 316.315 519.616 331.445Z" fill="white"/>
<path opacity="0.4" d="M685.115 201.777L616.273 740.353C615.145 749.173 606.629 755.729 597.902 755.041L392.489 738.853C382.732 728.598 374.695 716.293 368.961 701.525C366.146 694.284 364.084 686.47 362.713 678.253C358.9 655.511 360.378 629.661 365.939 604.286C370.215 584.753 376.92 565.469 385.504 548.069C392.369 534.158 400.442 521.438 409.459 510.748C415.95 503.055 422.972 495.58 430.378 488.25C439.308 479.402 448.799 470.767 458.589 462.211C481.403 442.26 505.832 422.754 528.449 402.155C580.636 354.638 622.975 301.544 612.787 225.786C612.46 223.399 609.281 205.126 605.218 186.185L670.721 186C679.494 185.976 686.233 193.043 685.115 201.777Z" fill="white"/>
<path d="M566 179.817C566 132.298 607.451 93.7844 657.193 93.789C705.465 93.7936 743.561 130.282 743.561 175.286C743.561 220.29 705.465 258.722 657.193 261.19C607.448 263.734 566 227.335 566 179.817Z" fill="url(#paint6_linear_50_203)"/>
<path d="M571.362 176.028C571.362 128.509 611.614 89.9954 659.915 90C706.79 90.0046 743.785 126.493 743.785 171.497C743.785 216.501 706.79 254.933 659.915 257.401C611.612 259.945 571.362 223.544 571.362 176.028Z" fill="url(#paint7_linear_50_203)"/>
<g opacity="0.5">
<path opacity="0.5" d="M585.142 175.665C585.142 135.742 618.958 103.382 659.541 103.389C698.923 103.394 730.006 134.049 730.006 171.86C730.006 209.67 698.925 241.959 659.541 244.033C618.958 246.17 585.142 215.587 585.142 175.665Z" fill="white"/>
</g>
<path opacity="0.5" d="M656.748 109.523C696.13 109.527 727.213 140.183 727.213 177.994C727.213 186.985 725.439 195.656 722.23 203.69C727.199 194.016 730.008 183.189 730.008 171.86C730.008 134.049 698.928 103.394 659.544 103.389C628.244 103.387 600.986 122.643 590.145 149.763C602.42 125.92 627.865 109.521 656.748 109.523Z" fill="white"/>
<path d="M625.893 165.893V200.737C625.893 210.81 634.367 218.758 644.79 218.486L670.634 217.812C680.931 217.543 689.253 209.246 689.253 199.278V164.802L625.893 165.893ZM649.693 201.916L654.495 187.362C652.438 186.3 651.045 184.208 651.045 181.771C651.045 178.195 654.046 175.238 657.741 175.169C661.431 175.099 664.42 177.935 664.42 181.504C664.42 183.936 663.032 186.081 660.981 187.227L665.765 201.541L649.693 201.916Z" fill="white"/>
<path d="M681.906 161.78C679.163 161.826 676.939 159.704 676.939 157.039C676.939 146.797 668.341 138.576 657.738 138.713C647.099 138.85 638.414 147.347 638.414 157.654C638.414 160.335 636.16 162.545 633.376 162.593C630.59 162.639 628.329 160.501 628.329 157.816C628.329 142.129 641.558 129.218 657.74 129.037C673.836 128.857 686.864 141.348 686.864 156.884C686.864 159.542 684.647 161.735 681.906 161.78Z" fill="white"/>
<path d="M297.216 472.678C297.216 472.678 294.484 462.435 296.421 459.816C298.356 457.196 310.192 446.726 309.056 450.141C307.917 453.555 306.21 455.83 306.21 455.83C306.21 455.83 312.584 458.79 308.485 463.226C304.389 467.666 303.019 468.689 302.792 472.674C302.568 476.66 299.949 478.026 297.216 472.678Z" fill="url(#paint8_linear_50_203)"/>
<path d="M183.52 914.819C183.52 914.819 182.072 923.678 182.256 926.829C182.441 929.981 217.428 931.592 217.779 929.232C218.131 926.872 211.998 923.114 207.679 921.79C203.359 920.462 190.717 916.927 190.717 916.927L183.52 914.819Z" fill="url(#paint9_linear_50_203)"/>
<path d="M192.011 905.989L190.896 917.006C190.896 917.006 186.833 919.692 183.252 917.62L181.459 905.631L192.011 905.989Z" fill="url(#paint10_linear_50_203)"/>
<path d="M121.094 929.18C121.094 929.18 119.646 938.038 119.831 941.19C120.015 944.341 155.003 945.953 155.354 943.593C155.709 941.232 149.572 937.474 145.253 936.15C140.934 934.826 128.292 931.288 128.292 931.288L121.094 929.18Z" fill="url(#paint11_linear_50_203)"/>
<path d="M129.589 920.349L128.474 931.365C128.474 931.365 124.41 934.052 120.829 931.979L119.037 919.99L129.589 920.349Z" fill="url(#paint12_linear_50_203)"/>
<path d="M185.664 618.416C189.706 626.615 193.752 634.813 197.795 643.012C201.046 689.8 202.664 740.681 201.624 795.092C200.851 835.574 198.689 873.922 195.58 909.918C190.097 909.666 184.613 909.414 179.13 909.162C171.201 893.425 161.842 869.585 160.98 840.156C160.082 809.459 169.388 805.381 168.798 775.991C168.032 737.894 152.057 727.73 143.546 681.907C140.292 664.381 138.102 641.493 140.703 613.724C155.691 615.289 170.676 616.854 185.664 618.416Z" fill="url(#paint13_linear_50_203)"/>
<path opacity="0.3" d="M140.706 613.724C148.798 614.569 156.891 615.414 164.986 616.258C179.555 641.61 183.623 667.994 181.064 679.667C177.447 696.181 167.879 701.47 168.408 718.048C168.929 734.452 178.594 738.707 184.723 758.039C188.968 771.427 187.846 783.735 185.433 807.806C180.57 856.29 168.862 871.119 178.668 887.015C181.454 891.533 186.476 896.91 196.314 901.017C196.073 903.991 195.835 906.972 195.583 909.914C190.1 909.666 184.616 909.41 179.133 909.162C171.204 893.425 161.845 869.585 160.983 840.156C160.085 809.459 169.391 805.381 168.801 775.991C168.035 737.894 152.06 727.733 143.549 681.91C140.295 664.385 138.101 641.496 140.706 613.724Z" fill="url(#paint14_linear_50_203)"/>
<path d="M163.903 633.177C156.312 674.574 149.607 718.878 144.376 765.865C138.058 822.598 134.687 876.084 133.363 925.74C127.343 925.91 121.328 926.081 115.308 926.251C91.5929 879.335 90.1449 847.527 93.5627 826.818C94.8794 818.84 98.4605 803.192 99.2768 779.803C99.8447 763.501 98.8048 751.094 97.5058 736.18C94.6594 703.482 91.2025 696.345 90.7056 671.334C90.2371 647.86 90.1413 635.984 96.8421 629.053C114.496 610.785 160.421 631.559 163.903 633.177Z" fill="url(#paint15_linear_50_203)"/>
<path d="M294.069 471.099C298.073 470.818 302.073 470.542 306.076 470.261C315.517 508.418 308.745 545.429 287.436 559.039C254.142 580.306 192.262 540.24 178.854 496.61C172.969 477.459 174.307 449.825 186.073 444.455C189.338 442.965 194.406 442.734 205.383 448.895C238.167 467.301 239.029 502.09 255.696 505.036C263.1 506.349 275.067 501.625 294.069 471.099Z" fill="url(#paint16_linear_50_203)"/>
<path d="M202.402 651.405C208.169 641.837 200.925 632.609 199.278 614.484C197.411 593.938 205.326 590.516 213.152 556.469C218.359 533.826 223.352 512.087 217.39 486.64C214.533 474.445 209.684 453.761 192.563 443.77C183.73 438.613 171.666 439.131 147.905 440.373C118.518 441.91 103.828 442.677 92.868 448.448C91.2637 449.292 57.9302 467.425 55.6339 496.982C53.2986 527.065 86.0572 531.107 90.4261 571.223C92.3888 589.232 88.8929 616.929 86.625 634.891C84.4494 652.14 82.9481 656.555 86.3553 661.78C94.5609 674.368 119.678 670.78 169.913 663.607C189.618 660.789 198.096 658.546 202.402 651.405Z" fill="url(#paint17_linear_50_203)"/>
<path d="M125.966 564.768C123.84 572.586 116.202 578.425 110.885 597.445C109.739 601.551 101.558 630.792 112.167 637.99C118.292 642.146 123.794 634.27 138.664 633.241C164.431 631.459 176.708 653.116 193.541 647.2C196.462 646.171 200.317 643.984 204.167 638.959C204.934 643.488 204.803 647.424 202.404 651.409C198.102 658.55 189.62 660.793 169.915 663.608C119.68 670.78 94.5628 674.369 86.3572 661.78C82.9535 656.559 84.4513 652.14 86.6269 634.892C88.8948 616.926 92.3907 589.228 90.428 571.223C86.059 531.107 53.2969 527.065 55.6358 496.982C56.2604 488.94 59.2169 481.781 63.1742 475.546C104.731 492.361 132.642 540.197 125.966 564.768Z" fill="url(#paint18_linear_50_203)"/>
<path d="M73.4794 623.938L81.7951 629.248C83.2893 627.523 86.7461 624.045 92.1408 622.859C98.2205 621.521 105.202 623.441 105.361 625.379C105.493 626.934 101.241 628.503 100.584 628.744C95.2783 630.703 91.3423 629.074 89.1986 631.207C88.4391 631.959 87.495 633.365 85.3194 634.664C84.748 635.005 84.1517 635.306 83.8358 635.431C80.2938 636.808 74.2212 630.643 73.6995 630.103L73.4794 623.938Z" fill="url(#paint19_linear_50_203)"/>
<path d="M98.0425 514.887C104.058 500.481 108.225 478.423 98.7239 445.668C36.1242 470.335 4.1996 528.811 16.6642 575.162C26.939 613.376 64.3257 631.988 72.6661 635.906C74.6075 631.487 76.5489 627.072 78.4867 622.657C68.8224 611.896 57.9301 595.982 59.4704 577.821C61.607 552.643 85.8654 544.051 98.0425 514.887Z" fill="url(#paint20_linear_50_203)"/>
<path d="M146.363 410.738C146.363 410.738 145.87 421.687 142.47 429.889C139.396 437.299 123.24 441.959 119.964 443.613C116.689 445.267 126.101 450.105 135.552 451.052C145.004 452.003 171.991 449.856 176.857 446.275C181.723 442.694 172.946 442.964 166.203 440.486C159.456 438.009 155.555 424.817 156.748 418.83C157.94 412.839 146.363 410.738 146.363 410.738Z" fill="url(#paint21_linear_50_203)"/>
<path d="M161.312 406.766C166.217 401.947 166.902 401.386 167.434 399.721C169.578 393.038 164.393 383.882 157.592 381.628C157.237 381.511 152.677 380.052 150.938 382.029C149.458 383.708 151.633 386.029 150.601 389.269C149.632 392.3 147.005 392.527 142.132 396.502C138.118 399.775 135.627 401.812 135.052 404.676C133.866 410.578 141.011 419.132 147.335 418.901C149.61 418.816 150.231 417.655 161.312 406.766Z" fill="url(#paint22_linear_50_203)"/>
<path d="M147.957 419.813C147.957 419.813 153.171 425.715 161.111 423.763C168.22 422.017 166.406 405.698 161.203 403.093C159.467 402.223 156.312 402.294 153.941 403.437C152.539 404.112 152.149 404.814 149.839 405.872C147.709 406.848 147.031 406.713 146.46 407.402C145.743 408.261 145.434 410.113 147.681 414.578C146.062 413.432 144.32 413.19 143.251 413.95C143.081 414.071 142.648 414.496 142.46 415.054C141.782 417.073 143.883 419.128 147.957 419.813Z" fill="url(#paint23_linear_50_203)"/>
<defs>
<linearGradient id="paint0_linear_50_203" x1="244.198" y1="476.218" x2="692.223" y2="476.218" gradientUnits="userSpaceOnUse">
<stop stop-color="#311944"/>
<stop offset="1" stop-color="#893976"/>
</linearGradient>
<linearGradient id="paint1_linear_50_203" x1="516.582" y1="1380.66" x2="460.314" y2="431.064" gradientUnits="userSpaceOnUse">
<stop offset="0.003597" stop-color="#F36F56"/>
<stop offset="1" stop-color="#FFC444"/>
</linearGradient>
<linearGradient id="paint2_linear_50_203" x1="304.635" y1="426.21" x2="626.984" y2="426.21" gradientUnits="userSpaceOnUse">
<stop offset="0.003597" stop-color="#F36F56"/>
<stop offset="1" stop-color="#FFC444"/>
</linearGradient>
<linearGradient id="paint3_linear_50_203" x1="293.241" y1="513.011" x2="615.34" y2="513.011" gradientUnits="userSpaceOnUse">
<stop offset="0.003597" stop-color="#F36F56"/>
<stop offset="1" stop-color="#FFC444"/>
</linearGradient>
<linearGradient id="paint4_linear_50_203" x1="451.56" y1="545.061" x2="375.803" y2="1013.11" gradientUnits="userSpaceOnUse">
<stop offset="0.003597" stop-color="#F36F56"/>
<stop offset="1" stop-color="#FFC444"/>
</linearGradient>
<linearGradient id="paint5_linear_50_203" x1="475.245" y1="57.1006" x2="491.444" y2="527.068" gradientUnits="userSpaceOnUse">
<stop offset="0.003597" stop-color="#F36F56"/>
<stop offset="1" stop-color="#FFC444"/>
</linearGradient>
<linearGradient id="paint6_linear_50_203" x1="-1490.89" y1="2200.78" x2="-1301.06" y2="2021.77" gradientUnits="userSpaceOnUse">
<stop stop-color="#311944"/>
<stop offset="1" stop-color="#893976"/>
</linearGradient>
<linearGradient id="paint7_linear_50_203" x1="599.879" y1="226.06" x2="751.996" y2="88.018" gradientUnits="userSpaceOnUse">
<stop stop-color="#FF9085"/>
<stop offset="1" stop-color="#FB6FBB"/>
</linearGradient>
<linearGradient id="paint8_linear_50_203" x1="316.232" y1="450.255" x2="269.384" y2="497.94" gradientUnits="userSpaceOnUse">
<stop stop-color="#FFC444"/>
<stop offset="0.9964" stop-color="#F36F56"/>
</linearGradient>
<linearGradient id="paint9_linear_50_203" x1="200.108" y1="903.209" x2="200.502" y2="797.421" gradientUnits="userSpaceOnUse">
<stop stop-color="#AA80F9"/>
<stop offset="0.9964" stop-color="#6165D7"/>
</linearGradient>
<linearGradient id="paint10_linear_50_203" x1="189.629" y1="937.204" x2="184.592" y2="882.54" gradientUnits="userSpaceOnUse">
<stop stop-color="#FFC444"/>
<stop offset="0.9964" stop-color="#F36F56"/>
</linearGradient>
<linearGradient id="paint11_linear_50_203" x1="137.739" y1="902.977" x2="138.134" y2="797.188" gradientUnits="userSpaceOnUse">
<stop stop-color="#AA80F9"/>
<stop offset="0.9964" stop-color="#6165D7"/>
</linearGradient>
<linearGradient id="paint12_linear_50_203" x1="126.419" y1="943.027" x2="121.382" y2="888.362" gradientUnits="userSpaceOnUse">
<stop stop-color="#FFC444"/>
<stop offset="0.9964" stop-color="#F36F56"/>
</linearGradient>
<linearGradient id="paint13_linear_50_203" x1="187.716" y1="661.765" x2="148.941" y2="860.005" gradientUnits="userSpaceOnUse">
<stop stop-color="#311944"/>
<stop offset="1" stop-color="#893976"/>
</linearGradient>
<linearGradient id="paint14_linear_50_203" x1="207.067" y1="758.702" x2="148.811" y2="763.372" gradientUnits="userSpaceOnUse">
<stop stop-color="#311944"/>
<stop offset="1" stop-color="#893976"/>
</linearGradient>
<linearGradient id="paint15_linear_50_203" x1="174.844" y1="769.66" x2="86.4063" y2="776.749" gradientUnits="userSpaceOnUse">
<stop stop-color="#311944"/>
<stop offset="1" stop-color="#893976"/>
</linearGradient>
<linearGradient id="paint16_linear_50_203" x1="244.7" y1="477.763" x2="179.27" y2="897.972" gradientUnits="userSpaceOnUse">
<stop stop-color="#AA80F9"/>
<stop offset="0.9964" stop-color="#6165D7"/>
</linearGradient>
<linearGradient id="paint17_linear_50_203" x1="105.54" y1="939.004" x2="73.8941" y2="1363.1" gradientUnits="userSpaceOnUse">
<stop stop-color="#AA80F9"/>
<stop offset="0.9964" stop-color="#6165D7"/>
</linearGradient>
<linearGradient id="paint18_linear_50_203" x1="-2.0531" y1="794.404" x2="172.608" y2="495.225" gradientUnits="userSpaceOnUse">
<stop stop-color="#AA80F9"/>
<stop offset="0.9964" stop-color="#6165D7"/>
</linearGradient>
<linearGradient id="paint19_linear_50_203" x1="59.8636" y1="587.544" x2="96.7007" y2="637.306" gradientUnits="userSpaceOnUse">
<stop stop-color="#FFC444"/>
<stop offset="0.9964" stop-color="#F36F56"/>
</linearGradient>
<linearGradient id="paint20_linear_50_203" x1="28.2213" y1="933.235" x2="-3.42495" y2="1357.33" gradientUnits="userSpaceOnUse">
<stop stop-color="#AA80F9"/>
<stop offset="0.9964" stop-color="#6165D7"/>
</linearGradient>
<linearGradient id="paint21_linear_50_203" x1="164.472" y1="463.543" x2="129.01" y2="419.42" gradientUnits="userSpaceOnUse">
<stop stop-color="#FFC444"/>
<stop offset="0.9964" stop-color="#F36F56"/>
</linearGradient>
<linearGradient id="paint22_linear_50_203" x1="137.507" y1="447.338" x2="156.303" y2="385.505" gradientUnits="userSpaceOnUse">
<stop stop-color="#444B8C"/>
<stop offset="0.9964" stop-color="#3E4177"/>
</linearGradient>
<linearGradient id="paint23_linear_50_203" x1="185.442" y1="425.761" x2="132.574" y2="402.229" gradientUnits="userSpaceOnUse">
<stop stop-color="#FFC444"/>
<stop offset="0.9964" stop-color="#F36F56"/>
</linearGradient>
</defs>
</svg>
